<?xml version="1.0" encoding="utf-8"?>
<!-- Generator: Adobe Illustrator 23.0.0, SVG Export Plug-In . SVG Version: 6.00 Build 0)  -->
<svg version="1.1" id="Layer_1" xmlns="http://www.w3.org/2000/svg" xmlns:xlink="http://www.w3.org/1999/xlink" x="0px" y="0px"
	 viewBox="0 0 405.8 107.9" style="enable-background:new 0 0 405.8 107.9;" xml:space="preserve">
<style type="text/css">
	.st0{enable-background:new    ;}
	.st1{fill:#EBBB1E;}
	.st2{fill:#2D78A4;}
</style>
<g>
	<g class="st0">
		<path class="st1" d="M128.7,62.5l2.4,15.4h-8.6l-1.4-8.9h-6.3l-1.4,8.9h-8.6l2.4-15.4l5.2-27.6h11L128.7,62.5z M120.1,62.1l-2-13
			l-2,13H120.1z"/>
		<path class="st1" d="M136.6,34.9h8.5v43h-8.5V34.9z"/>
		<path class="st1" d="M152.8,34.9h11.8c6.8,0,10.3,3.1,10.3,9.3v6.3c0,2.9-1.1,4.9-3.4,5.9c2.3,1,3.4,2.9,3.4,5.9v6.4
			c0,6.2-3.6,9.3-10.7,9.3h-11.3V34.9z M161.3,41.8V53h1.6c0.9,0,1.5,0,1.8-0.1c1.1-0.4,1.6-1.1,1.6-2.3v-6.3c0-1.6-0.8-2.4-2.5-2.4
			H161.3z M161.3,59.9v11.2h2.5c1.7,0,2.5-0.8,2.5-2.4v-6.4c0-1.2-0.5-1.9-1.6-2.3c-0.3-0.1-0.9-0.2-1.8-0.2H161.3z"/>
		<path class="st1" d="M181.6,34.9h20v6.9h-11.5V53h9.9v6.9h-9.9v11.2h11.5v6.9h-20V34.9z"/>
		<path class="st1" d="M207.4,43.6c0-6.2,3.7-9.3,11-9.3c7.4,0,11,3.1,11,9.3v6.1H221v-6.1c0-1.6-0.8-2.4-2.5-2.4h-0.1
			c-1.7,0-2.5,0.8-2.5,2.4v3.8c0,1.7,2.2,3.9,6.5,6.6c4.7,2.8,7,6.1,7,10.1v5.3c0,6.2-3.7,9.3-11,9.3c-7.4,0-11-3.1-11-9.3v-6.1h8.5
			v6.1c0,1.6,0.8,2.4,2.5,2.4c1.7,0,2.5-0.8,2.5-2.4v-4.8c0-1.9-2.2-4.2-6.5-6.8c-4.7-2.8-7-6.2-7-10.2V43.6z"/>
		<path class="st1" d="M256.5,34.9v6.9h-6.8v36.1h-8.5V41.8h-6.8v-6.9H256.5z"/>
	</g>
	<g class="st0">
		<path class="st2" d="M273.4,53h10.7v16.3c0,6.2-3.7,9.3-11,9.3c-7.3,0-11-3.1-11-9.3V43.6c0-6.2,3.7-9.3,11-9.3
			c7.4,0,11,3.1,11,9.3v6.1h-8.5v-6.1c0-1.6-0.8-2.4-2.5-2.4h-0.1c-1.7,0-2.5,0.8-2.5,2.4v25.8c0,1.6,0.8,2.4,2.5,2.4
			c1.7,0,2.5-0.8,2.5-2.4v-9.5h-2.2V53z"/>
		<path class="st2" d="M291.2,34.9h11.2c6.8,0,10.3,3.1,10.3,9.3v6.3c0,3.9-1.9,6.4-5.6,7.6l8.2,19.8H306l-5.8-18.5h-0.5v18.5h-8.5
			V34.9z M299.7,41.8V53h1c0.9,0,1.5,0,1.8-0.1c1.1-0.4,1.6-1.1,1.6-2.3v-6.3c0-1.6-0.8-2.4-2.5-2.4H299.7z"/>
		<path class="st2" d="M341.8,69.3c0,6.2-3.7,9.3-11,9.3c-7.3,0-11-3.1-11-9.3V43.6c0-6.2,3.7-9.3,11-9.3c7.4,0,11,3.1,11,9.3V69.3z
			 M333.3,43.6c0-1.6-0.8-2.4-2.5-2.4h-0.1c-1.7,0-2.5,0.8-2.5,2.4v25.8c0,1.6,0.8,2.4,2.5,2.4c1.7,0,2.5-0.8,2.5-2.4V43.6z"/>
		<path class="st2" d="M370.7,69.3c0,6.2-3.7,9.3-11,9.3c-7.3,0-11-3.1-11-9.3V34.9h8.5v34.4c0,1.6,0.8,2.4,2.5,2.4
			c1.7,0,2.5-0.8,2.5-2.4V34.9h8.5V69.3z"/>
		<path class="st2" d="M378,34.9h11.2c6.8,0,10.3,3.1,10.3,9.3v6.3c0,4.5-2.4,7.5-7.3,8.8c-1.2,0.3-2.9,0.5-5.1,0.5h-0.5v18.1H378
			V34.9z M386.5,41.8V53h1c0.9,0,1.5,0,1.8-0.1c1.1-0.4,1.6-1.1,1.6-2.3v-6.3c0-1.6-0.8-2.4-2.5-2.4H386.5z"/>
	</g>
</g>
<g>
	<g>
		<polygon class="st1" points="9.1,28.2 9.4,79.3 50.5,103.7 85.4,82.8 85.5,68 50.3,47.2 50.3,62.8 71.5,75.4 50.3,88.4 22.4,71.9 
			22,20.7 		"/>
		<polygon class="st1" points="29.6,66.9 42.6,74.5 42.7,23.9 50.1,19.4 78.5,36.3 78.5,44.8 70.3,50 82.5,57.6 91.5,52.4 
			91.7,28.5 50.6,3.9 29.6,16.1 		"/>
	</g>
</g>
</svg>
