<?xml version="1.0" encoding="utf-8"?>
<!-- Generator: Adobe Illustrator 23.0.0, SVG Export Plug-In . SVG Version: 6.00 Build 0)  -->
<svg version="1.1" id="Layer_1" xmlns="http://www.w3.org/2000/svg" xmlns:xlink="http://www.w3.org/1999/xlink" x="0px" y="0px"
	 viewBox="0 0 406.7 167.7" style="enable-background:new 0 0 406.7 167.7;" xml:space="preserve">
<style type="text/css">
	.st0{enable-background:new    ;}
	.st1{fill:#EBBB1E;}
	.st2{fill:#2D78A4;}
</style>
<g>
	<g class="st0">
		<path class="st1" d="M87.8,147.8l2.4,15.4h-8.6l-1.4-8.9H74l-1.4,8.9H64l2.4-15.4l5.2-27.6h11L87.8,147.8z M79.2,147.4l-2-13
			l-2,13H79.2z"/>
		<path class="st1" d="M95.6,120.2h8.5v43h-8.5V120.2z"/>
		<path class="st1" d="M111.9,120.2h11.8c6.8,0,10.3,3.1,10.3,9.3v6.3c0,2.9-1.1,4.9-3.4,5.9c2.3,1,3.4,2.9,3.4,5.9v6.4
			c0,6.2-3.6,9.3-10.7,9.3h-11.3V120.2z M120.4,127v11.2h1.6c0.9,0,1.5,0,1.8-0.1c1.1-0.4,1.6-1.1,1.6-2.3v-6.3
			c0-1.6-0.8-2.4-2.5-2.4H120.4z M120.4,145.1v11.2h2.5c1.7,0,2.5-0.8,2.5-2.4v-6.4c0-1.2-0.5-1.9-1.6-2.3c-0.3-0.1-0.9-0.2-1.8-0.2
			H120.4z"/>
		<path class="st1" d="M140.7,120.2h20v6.9h-11.5v11.2h9.9v6.9h-9.9v11.2h11.5v6.9h-20V120.2z"/>
		<path class="st1" d="M166.5,128.8c0-6.2,3.7-9.3,11-9.3c7.4,0,11,3.1,11,9.3v6.1h-8.5v-6.1c0-1.6-0.8-2.4-2.5-2.4h-0.1
			c-1.7,0-2.5,0.8-2.5,2.4v3.8c0,1.7,2.2,3.9,6.5,6.6c4.7,2.8,7,6.1,7,10.1v5.3c0,6.2-3.7,9.3-11,9.3c-7.4,0-11-3.1-11-9.3v-6.1h8.5
			v6.1c0,1.6,0.8,2.4,2.5,2.4c1.7,0,2.5-0.8,2.5-2.4v-4.8c0-1.9-2.2-4.2-6.5-6.8c-4.7-2.8-7-6.2-7-10.2V128.8z"/>
		<path class="st1" d="M215.6,120.2v6.9h-6.8v36.1h-8.5V127h-6.8v-6.9H215.6z"/>
	</g>
	<g class="st0">
		<path class="st2" d="M232.5,138.2h10.7v16.3c0,6.2-3.7,9.3-11,9.3c-7.3,0-11-3.1-11-9.3v-25.8c0-6.2,3.7-9.3,11-9.3
			c7.4,0,11,3.1,11,9.3v6.1h-8.5v-6.1c0-1.6-0.8-2.4-2.5-2.4h-0.1c-1.7,0-2.5,0.8-2.5,2.4v25.8c0,1.6,0.8,2.4,2.5,2.4
			c1.7,0,2.5-0.8,2.5-2.4v-9.5h-2.2V138.2z"/>
		<path class="st2" d="M250.3,120.2h11.2c6.8,0,10.3,3.1,10.3,9.3v6.3c0,3.9-1.9,6.4-5.6,7.6l8.2,19.8h-9.3l-5.8-18.5h-0.5v18.5
			h-8.5V120.2z M258.8,127v11.2h1c0.9,0,1.5,0,1.8-0.1c1.1-0.4,1.6-1.1,1.6-2.3v-6.3c0-1.6-0.8-2.4-2.5-2.4H258.8z"/>
		<path class="st2" d="M300.9,154.6c0,6.2-3.7,9.3-11,9.3c-7.3,0-11-3.1-11-9.3v-25.8c0-6.2,3.7-9.3,11-9.3c7.4,0,11,3.1,11,9.3
			V154.6z M292.4,128.8c0-1.6-0.8-2.4-2.5-2.4h-0.1c-1.7,0-2.5,0.8-2.5,2.4v25.8c0,1.6,0.8,2.4,2.5,2.4c1.7,0,2.5-0.8,2.5-2.4V128.8
			z"/>
		<path class="st2" d="M329.8,154.6c0,6.2-3.7,9.3-11,9.3c-7.3,0-11-3.1-11-9.3v-34.4h8.5v34.4c0,1.6,0.8,2.4,2.5,2.4
			c1.7,0,2.5-0.8,2.5-2.4v-34.4h8.5V154.6z"/>
		<path class="st2" d="M337.1,120.2h11.2c6.8,0,10.3,3.1,10.3,9.3v6.3c0,4.5-2.4,7.5-7.3,8.8c-1.2,0.3-2.9,0.5-5.1,0.5h-0.5v18.1
			h-8.5V120.2z M345.6,127v11.2h1c0.9,0,1.5,0,1.8-0.1c1.1-0.4,1.6-1.1,1.6-2.3v-6.3c0-1.6-0.8-2.4-2.5-2.4H345.6z"/>
	</g>
</g>
<g>
	<g>
		<polygon class="st1" points="161.1,27.2 161.4,78.3 202.5,102.7 237.4,81.8 237.5,67 202.3,46.2 202.3,61.8 223.5,74.4 
			202.3,87.4 174.4,70.9 174,19.7 		"/>
		<polygon class="st1" points="181.6,65.9 194.6,73.5 194.7,22.9 202.1,18.4 230.5,35.3 230.5,43.8 222.3,49 234.5,56.6 243.5,51.4 
			243.7,27.5 202.6,2.9 181.6,15.1 		"/>
	</g>
</g>
</svg>
